<svg xmlns="http://www.w3.org/2000/svg" viewBox="0 0 32 32">
  <path fill="#9aa7b0" opacity=".8" style="isolation: isolate" d="M 12 2 L 4 10 h 8 V 0 z"/>
  <path fill="#9aa7b0" opacity=".8" style="isolation: isolate" d="M 14 2 v 10 H 4 v 18 h 24 V 2"/>
  <g transform="matrix(0.06,0,0,0.06,12.8,12.8)">
    <defs>
      <clipPath id="a">
        <circle cx="160" cy="160" r="160"/>
      </clipPath>
      <mask id="b">
        <path fill="#fff" d="M0 0h320v320H0z"/>
        <circle cx="160" cy="160" r="30"/>
      </mask>
      <mask id="c">
        <path fill="#fff" d="M0 0h320v320H0z"/>
        <circle cx="160" cy="160" r="65"/>
      </mask>
    </defs>
    <g clip-path="url(#a)">
      <g mask="url(#b)">
        <circle cx="160" cy="160" r="160" fill="#bfcfff"/>
        <circle cx="160" cy="160" r="60" fill="#dfdfdf" stroke="#7f7f7f" stroke-width="10"/>
      </g>
      <g mask="url(#c)">
        <path fill="#fff" d="M0 60L60 0l200 320 60-60z"/>
        <path fill="#dfffff" d="M260 0l60 60L0 260l60 60z"/>
      </g>
    </g>
  </g>
</svg>