<svg xmlns="http://www.w3.org/2000/svg" xmlns:xlink="http://www.w3.org/1999/xlink" viewBox="0 0 32 32">
  <path fill="#9aa7b0" opacity=".8" style="isolation: isolate" d="M 12 2 L 4 10 h 8 V 0 z"/>
  <path fill="#9aa7b0" opacity=".8" style="isolation: isolate" d="M 14 2 v 10 H 4 v 18 h 24 V 2"/>
  <g>
    <path transform="matrix(1.1,0,0,1.2,-2.5,-4.4)" d="M 31.1 19.5 C 31 19.5 30.4 19 29.1 19 C 28.8 19 28.5 19 28.1 19.1 C 27.9 17.4 26.5 16.6 26.4 16.6 L 26.1 16.4 L 25.9 16.7 C 25.6 17.1 25.4 17.6 25.3 18.1 C 25.1 18.5 25.1 19 25.2 19.5 C 25.3 19.9 25.4 20.3 25.7 20.7 C 25.1 21.1 24.1 21.1 23.9 21.1 H 8.3 C 8.1 21.1 7.9 21.2 7.7 21.4 C 7.6 21.5 7.5 21.7 7.5 21.9 C 7.5 23.2 7.7 24.6 8.2 25.9 C 8.7 27.3 9.5 28.3 10.6 29 C 11.8 29.7 13.7 30.1 15.8 30.1 C 16.8 30.1 17.8 30 18.7 29.8 C 20.1 29.6 21.3 29.1 22.5 28.5 C 23.5 27.9 24.4 27.2 25.1 26.4 C 26.4 25 27.1 23.4 27.6 22 H 27.9 C 29.2 22 30.1 21.5 30.5 21 C 30.8 20.7 31.1 20.4 31.2 20 L 31.3 19.7 L 31.1 19.5 Z" fill="rgb(89, 171, 207)"/>
    <path transform="matrix(1.1,0,0,1.2,-1.3,-3.7)" d="M 10.8 18 H 8.7 C 8.6 18 8.5 18 8.5 18.1 V 20 C 8.5 20.1 8.6 20.2 8.7 20.2 H 10.8 C 10.9 20.2 11 20.1 11 20 V 18.1 C 11 18 10.9 18 10.8 18 Z" fill="rgb(89, 171, 207)"/>
    <path transform="matrix(1.1,0,0,1.2,-1.7,-3.7)" d="M 14 18 H 11.9 C 11.8 18 11.7 18 11.7 18.1 V 20 C 11.7 20.1 11.8 20.2 11.9 20.2 H 14 C 14.1 20.2 14.2 20.1 14.2 20 V 18.1 C 14.2 18 14.1 18 14 18 Z" fill="rgb(89, 171, 207)"/>
    <path transform="matrix(1.1,0,0,1.2,-2.1,-3.7)" d="M 17.3 18 H 15.2 C 15.1 18 15.1 18 15.1 18.1 V 20 C 15.1 20.1 15.1 20.2 15.2 20.2 H 17.3 C 17.4 20.2 17.5 20.1 17.5 20 V 18.1 C 17.5 18 17.4 18 17.3 18 Z" fill="rgb(89, 171, 207)"/>
    <path transform="matrix(1.1,0,0,1.2,-2.5,-3.7)" d="M 20.5 18 H 18.4 C 18.3 18 18.3 18 18.3 18.1 V 20 C 18.3 20.1 18.3 20.2 18.4 20.2 H 20.5 C 20.6 20.2 20.7 20.1 20.7 20 V 18.1 C 20.7 18 20.6 18 20.5 18 Z" fill="rgb(89, 171, 207)"/>
    <path transform="matrix(1.1,0,0,1.2,-1.7,-3.2)" d="M 14 14.8 H 11.9 C 11.8 14.8 11.7 14.9 11.7 15 V 16.8 C 11.7 16.9 11.8 17 11.9 17 H 14 C 14.1 17 14.2 16.9 14.2 16.8 V 15 C 14.2 14.9 14.1 14.8 14 14.8 Z" fill="rgb(89, 171, 207)"/>
    <path transform="matrix(1.1,0,0,1.2,-2.1,-3.2)" d="M 17.3 14.8 H 15.2 C 15.1 14.8 15.1 14.9 15.1 15 V 16.8 C 15.1 16.9 15.1 17 15.2 17 H 17.3 C 17.4 17 17.5 16.9 17.5 16.8 V 15 C 17.5 14.9 17.4 14.8 17.3 14.8 Z" fill="rgb(89, 171, 207)"/>
    <path transform="matrix(1.1,0,0,1.2,-2.5,-3.2)" d="M 20.5 14.8 H 18.4 C 18.3 14.8 18.3 14.9 18.3 15 V 16.8 C 18.3 16.9 18.3 17 18.4 17 H 20.5 C 20.6 17 20.7 16.9 20.7 16.8 V 15 C 20.7 14.9 20.6 14.8 20.5 14.8 Z" fill="rgb(89, 171, 207)"/>
    <path transform="matrix(1.1,0,0,1.2,-2.5,-2.7)" d="M 20.5 11.7 H 18.4 C 18.3 11.7 18.3 11.8 18.3 11.9 V 13.7 C 18.3 13.8 18.3 13.9 18.4 13.9 H 20.5 C 20.6 13.9 20.7 13.8 20.7 13.7 V 11.9 C 20.7 11.8 20.6 11.7 20.5 11.7 Z" fill="rgb(89, 171, 207)"/>
    <path transform="matrix(1.1,0,0,1.2,-2.9,-3.7)" d="M 23.9 18 H 21.8 C 21.7 18 21.6 18 21.6 18.1 V 20 C 21.6 20.1 21.7 20.2 21.8 20.2 H 23.9 C 24 20.2 24.1 20.1 24.1 20 V 18.1 C 24.1 18 24 18 23.9 18 Z" fill="rgb(89, 171, 207)"/>
  </g>
</svg>