<svg xmlns="http://www.w3.org/2000/svg" viewBox="0 0 32 32">
  <path fill="#9aa7b0" opacity=".8" style="isolation: isolate" d="M 12 1 L 4 9 h 8 V 0 z"/>
  <path fill="#9aa7b0" opacity=".8" style="isolation: isolate" d="M 13 1 v 9 H 4 v 21 h 24 V 1"/>
  <g transform="matrix(0.06,0,0,0.06,12.8,14)">
    <defs>
      <mask id="a">
        <path fill="#fff" d="M0 0h320v320H0z"/>
        <path transform="matrix(.7 0 0 .7 48 48)" d="M160 0l140 80v160l-140 80-140-80V80z"/>
      </mask>
    </defs>
    <path fill="#4b32c3" mask="url(#a)" d="M0 160L80 20h160l80 140-80 140H80z"/>
    <path fill="#8080f2" d="M160 88l63 36v72l-63 36-63-36v-72z"/>
  </g>
</svg>