<svg xmlns="http://www.w3.org/2000/svg" viewBox="0 0 32 32">
  <path fill="#9aa7b0" opacity=".8" style="isolation: isolate" d="M 12 2 L 4 10 h 8 V 0 z"/>
  <path fill="#9aa7b0" opacity=".8" style="isolation: isolate" d="M 14 2 v 10 H 4 v 18 h 24 V 2"/>
  <g transform="matrix(0.1,0,0,0.1,13.6,12.8)">
    <path transform="matrix(0.6,0,0,0.6,-15.6,88.8)" fill="#fca326" d="M 170.1 172.3 L 10.1 32.3 l 20 -60 h 280 l 20 60 z"/>
    <path transform="matrix(0.6,0,0,0.6,-15.6,88.8)" fill="#fc6d26" d="M 170.1 172.3 L 30.1 -27.7 h 280 z"/>
    <path transform="matrix(0.6,0,0,0.6,-15.6,59)" fill="#e24329" d="M 170.1 221.8 L 70.1 -98.2 L 30.1 21.8 h 280 L 270.1 -98.2 z"/>
  </g>
</svg>