<svg xmlns="http://www.w3.org/2000/svg" viewBox="0 0 32 32">
  <path fill="#87939a" style="isolation: isolate" d="M 12 2 L 4 10 h 8 V 0 z"/>
  <path fill="#87939a" style="isolation: isolate" d="M 13.5 2 v 9.5 H 4 v 20 h 24 V 2"/>
  <g transform="matrix(0.06,0,0,0.06,12.8,12.8)">
    <defs>
      <mask id="a">
        <path fill="#fff" d="M0 0h320v320H0z"/>
        <path d="M100 60h120l60 100-60 100H100L40 160z"/>
        <path fill="none" stroke="#000" stroke-width="50" d="M70 0l90 160h160"/>
      </mask>
      <clipPath id="b">
        <path d="M0 0h70l90 160h160v160H0z"/>
      </clipPath>
      <clipPath id="c">
        <path d="M320 0H70l90 160h160z"/>
      </clipPath>
    </defs>
    <g fill="#063">
      <g mask="url(#a)">
        <circle cx="160" cy="160" r="160" fill="#83b716" clip-path="url(#b)"/>
        <circle cx="160" cy="160" r="160" clip-path="url(#c)"/>
      </g>
      <circle cx="160" cy="160" r="60"/>
    </g>
  </g>
</svg>