<svg xmlns="http://www.w3.org/2000/svg" viewBox="0 0 32 32">
  <path fill="#9aa7b0" opacity=".8" style="isolation: isolate" d="M 12 1 L 4 9 h 8 V 0 z"/>
  <path fill="#9aa7b0" opacity=".8" style="isolation: isolate" d="M 13 1 v 9 H 4 v 21 h 24 V 1"/>
  <g transform="matrix(0.55,0,0,0.55,5.5,12.7)">
    <g id="surface1"><path d="M0 15h48v17H24v3H13v-3H0z" fill="#D50000"/><path d="M3 29h5v-8h3v8h2V18H3z" fill="#FFF"/><path d="M16 18v14h5v-3h5V18zm8 8h-3v-5h3z" fill="#FFF"/><path d="M29 18v11h5v-8h3v8h3v-8h3v8h2V18z" fill="#FFF"/></g><metadata><rdf:RDF xmlns:rdf="http://www.w3.org/1999/02/22-rdf-syntax-ns#" xmlns:rdfs="http://www.w3.org/2000/01/rdf-schema#" xmlns:dc="http://purl.org/dc/elements/1.1/"><rdf:Description about="https://iconscout.com/legal#licenses" dc:title="npm" dc:description="npm" dc:publisher="Iconscout" dc:date="2017-12-15" dc:format="image/svg+xml" dc:language="en"><dc:creator><rdf:Bag><rdf:li>Icons8</rdf:li></rdf:Bag></dc:creator></rdf:Description></rdf:RDF></metadata>
  </g>
</svg>