<svg xmlns="http://www.w3.org/2000/svg" width="320" height="320">
  <path fill="#3f7fbf" mask="url(#a)" d="M 0 70 h 280 v 220 H 0 z"/>
  <path fill="none" stroke="#3f7fbf" stroke-width="20" d="M 10 80 l 0 -40 h 100 l 40 40"/>
  <g fill="#ffffff" transform="matrix(0.5,0,0,0.5,100,80)">
    <ellipse cx="-54" cy="206" rx="30" ry="80"/>
    <path d="M -54 126 h 130 v 160 H -54 z"/>
    <ellipse cx="206" cy="206" rx="30" ry="80"/>
    <path d="M 76 126 h 130 v 160 H 76 z"/>
    <ellipse cx="76" cy="76" rx="80" ry="30"/>
    <path d="M -4 76 h 160 v 30 H -4 z"/>
    <rect width="80" height="130" x="76" y="76" rx="40" ry="40"/>
    <path d="M 76 126 h 40 v 80 h -40 z"/>
    <ellipse cx="76" cy="336" rx="80" ry="30"/>
    <path d="M -4 306 h 160 v 30 H -4 z"/>
    <rect width="80" height="130" x="-4" y="206" rx="40" ry="40"/>
    <path d="M 36 206 h 40 v 80 h -40 z"/>
  </g>
</svg>