<svg xmlns="http://www.w3.org/2000/svg" viewBox="0 0 32 32">
  <path fill="#9aa7b0" opacity=".8" style="isolation: isolate" d="M 12 1 L 4 9 h 8 V 0 z"/>
  <path fill="#9aa7b0" opacity=".8" style="isolation: isolate" d="M 13 1 v 9 H 4 v 21 h 24 V 1"/>
  <path fill="#40b6e0" d="M 29.3 22.3 c 0 -0.3 0.1 -0.7 0.1 -1 c 0 -0.3 0 -0.7 -0.1 -1 l 2.2 -1.8 c 0.2 -0.1 0.2 -0.4 0.1 -0.7 l -2.1 -3.6 c -0.1 -0.2 -0.4 -0.3 -0.7 -0.2 l -2.7 1.1 c -0.6 -0.4 -1.1 -0.8 -1.8 -1 L 24.1 11.1 c 0 -0.2 -0.2 -0.4 -0.6 -0.4 h -4.2 c -0.2 0 -0.4 0.2 -0.6 0.4 L 18.5 13.9 C 17.8 14.1 17.2 14.6 16.6 14.9 L 14 13.9 c -0.2 -0.1 -0.6 0 -0.7 0.2 L 11.2 17.8 C 11.1 18 11.2 18.3 11.4 18.4 l 2.2 1.8 C 13.5 20.5 13.5 20.9 13.5 21.3 s 0 0.7 0.1 1 l -2.2 1.8 c -0.2 0.1 -0.2 0.4 -0.1 0.7 l 2.1 3.6 c 0.1 0.2 0.4 0.3 0.7 0.2 l 2.7 -1.1 c 0.6 0.4 1.1 0.8 1.8 1 l 0.4 2.8 c 0 0.2 0.2 0.4 0.6 0.4 h 4.2 c 0.2 0 0.4 -0.2 0.6 -0.4 l 0.4 -2.8 c 0.7 -0.2 1.2 -0.7 1.8 -1 l 2.7 1.1 c 0.2 0.1 0.6 0 0.7 -0.2 l 2.1 -3.6 c 0.1 -0.2 0.1 -0.6 -0.1 -0.7 L 29.3 22.3 z M 21.5 25.3 c -2.2 0 -4 -1.8 -4 -4 s 1.8 -4 4 -4 s 4 1.8 4 4 S 23.7 25.3 21.5 25.3 z"/>
</svg>