<svg xmlns="http://www.w3.org/2000/svg" viewBox="0 0 32 32">
  <path fill="#87939a" style="isolation: isolate" d="M 12 2 L 4 10 h 8 V 0 z"/>
  <path fill="#87939a" style="isolation: isolate" d="M 13.5 2 v 9.5 H 4 v 20 h 24 V 2"/>
  <g transform="matrix(1.3,0,0,1.3,-9.6,-9.35)">
    <path fill="#b19cd9" d="M 14 20 v 6 h 4 l 5 5 V 15 L 18 20 H 14 z m 13.5 3 c 0 -1.8 -1 -3.3 -2.5 -4 v 8.1 c 1.5 -0.7 2.5 -2.3 2.5 -4 z M 25 14.2 v 2.1 c 2.9 0.9 5 3.5 5 6.7 s -2.1 5.9 -5 6.7 v 2.1 c 4 -0.9 7 -4.5 7 -8.8 s -3 -7.9 -7 -8.8 z"/>
  </g>
</svg>