<?xml version="1.0" encoding="UTF-8"?>
<svg width="300px" height="300px" viewBox="0 0 256 256" version="1.1" xmlns="http://www.w3.org/2000/svg" xmlns:xlink="http://www.w3.org/1999/xlink" preserveAspectRatio="xMidYMid">
		<g>
				<path d="M 127.2 239 C 68 238.6 16.6 189.5 17 127.1 C 17.4 67.1 67.3 16.6 129 17 C 188.9 17.4 239.5 67.2 239 128.2 C 239.5 188.6 188.6 239.4 127.2 239 Z M 127.2 239 C 68 238.6 16.6 189.5 17 127.1 C 17.4 67.1 67.3 16.6 129 17 C 188.9 17.4 239.5 67.2 239 128.2 C 239.5 188.6 188.6 239.4 127.2 239 Z" fill="#49a32b"></path>
				<path d="M 169.3 128 C 169 133.2 164.4 137.6 159.9 136.9 C 159.8 136.9 159.8 136.9 159.8 136.9 C 154.8 136.9 150.7 132.8 150.7 127.7 C 150.8 122.7 155 118.7 160.1 118.8 C 165.1 118.8 169.6 123.1 169.3 128 Z M 88.2 179.2 C 90.1 179.3 92 179.2 94.2 179.2 L 94.2 193 C 80.6 195.3 69.3 191.5 66.6 179.9 C 65.6 175.7 65.1 171.4 64.8 167 C 64.5 162.5 65.1 157.8 64.7 153.2 C 63.7 140.6 62.1 136.3 50 135.7 L 50 120 C 50.9 119.8 51.7 119.7 52.6 119.6 C 59.3 119.2 62.1 117.2 63.5 110.7 C 64.2 107 64.6 103.3 64.7 99.5 C 65.3 92.3 65.1 85 66.3 77.9 C 68 67.6 74.4 62.6 84.9 62.1 C 87.9 61.9 90.9 62.1 94.3 62.1 L 94.3 76.1 C 92.9 76.2 91.6 76.4 90.4 76.4 C 81.8 76.1 81.3 79.1 80.7 86.2 C 80.3 90.6 80.9 95.2 80.6 99.6 C 80.2 104.1 79.7 108.5 78.8 112.9 C 77.5 119.2 73.7 123.9 68.2 127.9 C 78.7 134.7 79.9 145.3 80.6 156.1 C 81 161.9 80.8 167.7 81.4 173.5 C 81.9 177.9 83.6 179.1 88.2 179.2 Z M 97 118.8 C 97.1 118.8 97.1 118.8 97.2 118.8 C 102.2 118.9 106.2 123 106.1 128 C 106.1 128.2 106.1 128.3 106.1 128.5 C 105.8 133.4 101.6 137.1 96.7 136.9 C 96.5 136.9 96.3 136.9 96.1 136.9 C 91.2 136.6 87.3 132.4 87.6 127.4 C 87.8 122.4 92 118.5 97 118.8 Z M 128.3 118.8 C 133.8 118.7 137.4 122.3 137.4 127.7 C 137.5 133.3 134 136.8 128.6 136.9 C 123 136.9 119.4 133.4 119.3 128 C 119.3 127.7 119.3 127.5 119.3 127.2 C 119.5 122.4 123.5 118.6 128.3 118.8 Z M 193.7 111.9 C 195.1 117.4 198 119.3 203.7 119.5 C 204.6 119.6 205.6 119.7 206.9 119.9 L 206.9 135.6 C 206.2 135.8 205.5 136 204.7 136.1 C 197 136.6 193.5 139.7 192.8 147.4 C 192.3 152.3 192.3 157.3 192 162.3 C 191.8 167.7 191.3 173.1 190.5 178.4 C 188.5 188.1 182.5 193 172.5 193.6 C 169.2 193.8 166 193.6 162.5 193.6 L 162.5 179.6 C 164.4 179.5 166 179.3 167.7 179.3 C 173.7 179.1 175.8 177.2 176.1 171.3 C 176.4 164.7 176.6 158.2 176.8 151.7 C 177.3 142.2 179.9 133.8 188.6 127.9 C 183.6 124.3 179.6 120 178.5 114.1 C 177.3 107 176.9 99.8 176.2 92.6 C 175.8 89 175.9 85.4 175.5 81.8 C 175.1 77.9 172.5 76.5 168.9 76.5 C 166.9 76.4 164.9 76.4 162.3 76.4 L 162.3 62.8 C 178.8 60 190.2 65.5 191.3 81.3 C 191.7 87.9 191.6 94.6 192.1 101.2 C 192.2 104.8 192.8 108.4 193.7 111.9 Z"></path>
		</g>
</svg>
